<svg version="1.1" viewBox="0.0 0.0 526.0 371.0" fill="none" stroke="none" stroke-linecap="square" stroke-miterlimit="10" width="526" height="371" xmlns:xlink="http://www.w3.org/1999/xlink" xmlns="http://www.w3.org/2000/svg"><path fill="#ffffff" d="M0 0L526.0 0L526.0 371.0L0 371.0L0 0Z" fill-rule="nonzero"/><path stroke="#333333" stroke-width="1.0" stroke-linecap="butt" d="M77.5 332.5L507.5 332.5" fill-rule="nonzero"/><path stroke="#cccccc" stroke-width="1.0" stroke-linecap="butt" d="M77.5 242.5L507.5 242.5" fill-rule="nonzero"/><path stroke="#cccccc" stroke-width="1.0" stroke-linecap="butt" d="M77.5 152.5L507.5 152.5" fill-rule="nonzero"/><path stroke="#cccccc" stroke-width="1.0" stroke-linecap="butt" d="M77.5 61.5L507.5 61.5" fill-rule="nonzero"/><path stroke="#000000" stroke-width="1.0" stroke-linecap="butt" d="M77.5 332.5L77.5 61.5" fill-rule="nonzero"/><clipPath id="id_0"><path d="M77.55 61.916668L507.45 61.916668L507.45 332.45L77.55 332.45L77.55 61.916668Z" clip-rule="nonzero"/></clipPath><path stroke="#000000" stroke-width="2.0" stroke-linecap="butt" stroke-opacity="0.0" clip-path="url(#id_0)" d="M206.0 332.0L123.0 332.0L123.0 106.0C123.0 104.89543 123.89543 104.0 125.0 104.0L204.0 104.0C205.10457 104.0 206.0 104.89543 206.0 106.0Z" fill-rule="nonzero"/><path fill="#4285f4" clip-path="url(#id_0)" d="M206.0 332.0L123.0 332.0L123.0 106.0C123.0 104.89543 123.89543 104.0 125.0 104.0L204.0 104.0C205.10457 104.0 206.0 104.89543 206.0 106.0Z" fill-rule="nonzero"/><path stroke="#000000" stroke-width="2.0" stroke-linecap="butt" stroke-opacity="0.0" clip-path="url(#id_0)" d="M335.0 332.0L252.0 332.0L252.0 142.0C252.0 140.89543 252.89543 140.0 254.0 140.0L333.0 140.0C334.10458 140.0 335.0 140.89543 335.0 142.0Z" fill-rule="nonzero"/><path fill="#4285f4" clip-path="url(#id_0)" d="M335.0 332.0L252.0 332.0L252.0 142.0C252.0 140.89543 252.89543 140.0 254.0 140.0L333.0 140.0C334.10458 140.0 335.0 140.89543 335.0 142.0Z" fill-rule="nonzero"/><path stroke="#000000" stroke-width="2.0" stroke-linecap="butt" stroke-opacity="0.0" clip-path="url(#id_0)" d="M463.0 332.0L380.0 332.0L380.0 149.0C380.0 147.89543 380.89542 147.0 382.0 147.0L461.0 147.0C462.10458 147.0 463.0 147.89543 463.0 149.0Z" fill-rule="nonzero"/><path fill="#4285f4" clip-path="url(#id_0)" d="M463.0 332.0L380.0 332.0L380.0 149.0C380.0 147.89543 380.89542 147.0 382.0 147.0L461.0 147.0C462.10458 147.0 463.0 147.89543 463.0 149.0Z" fill-rule="nonzero"/><path stroke="#4285f4" stroke-width="3.0" stroke-linejoin="round" stroke-linecap="round" d="M144.0625 117.275635Q144.0625 119.181885 143.40625 120.119385Q142.76562 121.04126 141.375 121.04126Q140.01562 121.04126 139.35938 120.13501Q138.70312 119.22876 138.67188 117.41626L138.67188 115.97876Q138.67188 114.088135 139.3125 113.181885Q139.96875 112.26001 141.35938 112.26001Q142.73438 112.26001 143.39062 113.150635Q144.04688 114.025635 144.0625 115.869385L144.0625 117.275635ZM142.96875 115.79126Q142.96875 114.41626 142.57812 113.79126Q142.20312 113.150635 141.35938 113.150635Q140.53125 113.150635 140.14062 113.79126Q139.76562 114.41626 139.76562 115.713135L139.76562 117.44751Q139.76562 118.82251 140.15625 119.494385Q140.5625 120.150635 141.375 120.150635Q142.17188 120.150635 142.5625 119.525635Q142.95312 118.900635 142.96875 117.57251L142.96875 115.79126ZM145.84375 120.35376Q145.84375 120.07251 146.0 119.88501Q146.17188 119.69751 146.5 119.69751Q146.84375 119.69751 147.01562 119.88501Q147.1875 120.07251 147.1875 120.35376Q147.1875 120.619385 147.01562 120.806885Q146.84375 120.97876 146.5 120.97876Q146.17188 120.97876 146.0 120.806885Q145.84375 120.619385 145.84375 120.35376ZM149.20312 116.63501L149.64062 112.38501L154.01562 112.38501L154.01562 113.38501L150.5625 113.38501L150.29688 115.713135Q150.9375 115.338135 151.73438 115.338135Q152.89062 115.338135 153.57812 116.119385Q154.26562 116.88501 154.26562 118.19751Q154.26562 119.51001 153.54688 120.275635Q152.84375 121.04126 151.5625 121.04126Q150.4375 121.04126 149.71875 120.41626Q149.0 119.775635 148.90625 118.66626L149.92188 118.66626Q150.03125 119.400635 150.45312 119.775635Q150.875 120.150635 151.5625 120.150635Q152.3125 120.150635 152.75 119.63501Q153.1875 119.119385 153.1875 118.213135Q153.1875 117.35376 152.71875 116.838135Q152.25 116.32251 151.46875 116.32251Q150.76562 116.32251 150.35938 116.619385L150.07812 116.85376L149.20312 116.63501ZM161.0625 117.275635Q161.0625 119.181885 160.40625 120.119385Q159.76562 121.04126 158.375 121.04126Q157.01562 121.04126 156.35938 120.13501Q155.70312 119.22876 155.67188 117.41626L155.67188 115.97876Q155.67188 114.088135 156.3125 113.181885Q156.96875 112.26001 158.35938 112.26001Q159.73438 112.26001 160.39062 113.150635Q161.04688 114.025635 161.0625 115.869385L161.0625 117.275635ZM159.96875 115.79126Q159.96875 114.41626 159.57812 113.79126Q159.20312 113.150635 158.35938 113.150635Q157.53125 113.150635 157.14062 113.79126Q156.76562 114.41626 156.76562 115.713135L156.76562 117.44751Q156.76562 118.82251 157.15625 119.494385Q157.5625 120.150635 158.375 120.150635Q159.17188 120.150635 159.5625 119.525635Q159.95312 118.900635 159.96875 117.57251L159.96875 115.79126ZM166.96875 112.38501L166.96875 113.29126L166.76562 113.29126Q165.5 113.32251 164.75 114.056885Q164.0 114.775635 163.875 116.088135Q164.5625 115.32251 165.71875 115.32251Q166.82812 115.32251 167.5 116.10376Q168.17188 116.88501 168.17188 118.13501Q168.17188 119.44751 167.45312 120.244385Q166.73438 121.04126 165.51562 121.04126Q164.29688 121.04126 163.53125 120.10376Q162.78125 119.150635 162.78125 117.66626L162.78125 117.26001Q162.78125 114.900635 163.78125 113.650635Q164.78125 112.400635 166.76562 112.38501L166.96875 112.38501ZM165.54688 116.22876Q164.98438 116.22876 164.51562 116.556885Q164.04688 116.88501 163.85938 117.400635L163.85938 117.79126Q163.85938 118.85376 164.32812 119.494385Q164.8125 120.13501 165.51562 120.13501Q166.25 120.13501 166.67188 119.60376Q167.09375 119.056885 167.09375 118.181885Q167.09375 117.306885 166.67188 116.775635Q166.25 116.22876 165.54688 116.22876ZM174.28125 118.056885L175.46875 118.056885L175.46875 118.931885L174.28125 118.931885L174.28125 120.91626L173.20312 120.91626L173.20312 118.931885L169.3125 118.931885L169.3125 118.29126L173.125 112.38501L174.28125 112.38501L174.28125 118.056885ZM170.54688 118.056885L173.20312 118.056885L173.20312 113.869385L173.0625 114.10376L170.54688 118.056885ZM182.0625 117.275635Q182.0625 119.181885 181.40625 120.119385Q180.76562 121.04126 179.375 121.04126Q178.01562 121.04126 177.35938 120.13501Q176.70312 119.22876 176.67188 117.41626L176.67188 115.97876Q176.67188 114.088135 177.3125 113.181885Q177.96875 112.26001 179.35938 112.26001Q180.73438 112.26001 181.39062 113.150635Q182.04688 114.025635 182.0625 115.869385L182.0625 117.275635ZM180.96875 115.79126Q180.96875 114.41626 180.57812 113.79126Q180.20312 113.150635 179.35938 113.150635Q178.53125 113.150635 178.14062 113.79126Q177.76562 114.41626 177.76562 115.713135L177.76562 117.44751Q177.76562 118.82251 178.15625 119.494385Q178.5625 120.150635 179.375 120.150635Q180.17188 120.150635 180.5625 119.525635Q180.95312 118.900635 180.96875 117.57251L180.96875 115.79126ZM188.89062 114.60376Q188.89062 115.244385 188.54688 115.744385Q188.20312 116.244385 187.64062 116.525635Q188.29688 116.806885 188.6875 117.369385Q189.07812 117.91626 189.07812 118.619385Q189.07812 119.713135 188.32812 120.38501Q187.59375 121.04126 186.375 121.04126Q185.14062 121.04126 184.39062 120.38501Q183.65625 119.713135 183.65625 118.619385Q183.65625 117.91626 184.03125 117.369385Q184.40625 116.806885 185.07812 116.525635Q184.51562 116.244385 184.1875 115.744385Q183.85938 115.244385 183.85938 114.60376Q183.85938 113.525635 184.54688 112.900635Q185.23438 112.26001 186.375 112.26001Q187.5 112.26001 188.1875 112.900635Q188.89062 113.525635 188.89062 114.60376ZM188.0 118.588135Q188.0 117.869385 187.54688 117.431885Q187.09375 116.97876 186.35938 116.97876Q185.625 116.97876 185.17188 117.431885Q184.73438 117.869385 184.73438 118.60376Q184.73438 119.32251 185.17188 119.744385Q185.60938 120.150635 186.375 120.150635Q187.125 120.150635 187.5625 119.72876Q188.0 119.306885 188.0 118.588135ZM186.375 113.150635Q185.73438 113.150635 185.32812 113.556885Q184.9375 113.94751 184.9375 114.63501Q184.9375 115.275635 185.32812 115.681885Q185.71875 116.088135 186.35938 116.088135Q187.01562 116.088135 187.40625 115.681885Q187.79688 115.275635 187.79688 114.63501Q187.79688 113.97876 187.39062 113.57251Q186.98438 113.150635 186.375 113.150635Z" fill-rule="nonzero"/><path fill="#ffffff" d="M144.0625 117.275635Q144.0625 119.181885 143.40625 120.119385Q142.76562 121.04126 141.375 121.04126Q140.01562 121.04126 139.35938 120.13501Q138.70312 119.22876 138.67188 117.41626L138.67188 115.97876Q138.67188 114.088135 139.3125 113.181885Q139.96875 112.26001 141.35938 112.26001Q142.73438 112.26001 143.39062 113.150635Q144.04688 114.025635 144.0625 115.869385L144.0625 117.275635ZM142.96875 115.79126Q142.96875 114.41626 142.57812 113.79126Q142.20312 113.150635 141.35938 113.150635Q140.53125 113.150635 140.14062 113.79126Q139.76562 114.41626 139.76562 115.713135L139.76562 117.44751Q139.76562 118.82251 140.15625 119.494385Q140.5625 120.150635 141.375 120.150635Q142.17188 120.150635 142.5625 119.525635Q142.95312 118.900635 142.96875 117.57251L142.96875 115.79126ZM145.84375 120.35376Q145.84375 120.07251 146.0 119.88501Q146.17188 119.69751 146.5 119.69751Q146.84375 119.69751 147.01562 119.88501Q147.1875 120.07251 147.1875 120.35376Q147.1875 120.619385 147.01562 120.806885Q146.84375 120.97876 146.5 120.97876Q146.17188 120.97876 146.0 120.806885Q145.84375 120.619385 145.84375 120.35376ZM149.20312 116.63501L149.64062 112.38501L154.01562 112.38501L154.01562 113.38501L150.5625 113.38501L150.29688 115.713135Q150.9375 115.338135 151.73438 115.338135Q152.89062 115.338135 153.57812 116.119385Q154.26562 116.88501 154.26562 118.19751Q154.26562 119.51001 153.54688 120.275635Q152.84375 121.04126 151.5625 121.04126Q150.4375 121.04126 149.71875 120.41626Q149.0 119.775635 148.90625 118.66626L149.92188 118.66626Q150.03125 119.400635 150.45312 119.775635Q150.875 120.150635 151.5625 120.150635Q152.3125 120.150635 152.75 119.63501Q153.1875 119.119385 153.1875 118.213135Q153.1875 117.35376 152.71875 116.838135Q152.25 116.32251 151.46875 116.32251Q150.76562 116.32251 150.35938 116.619385L150.07812 116.85376L149.20312 116.63501ZM161.0625 117.275635Q161.0625 119.181885 160.40625 120.119385Q159.76562 121.04126 158.375 121.04126Q157.01562 121.04126 156.35938 120.13501Q155.70312 119.22876 155.67188 117.41626L155.67188 115.97876Q155.67188 114.088135 156.3125 113.181885Q156.96875 112.26001 158.35938 112.26001Q159.73438 112.26001 160.39062 113.150635Q161.04688 114.025635 161.0625 115.869385L161.0625 117.275635ZM159.96875 115.79126Q159.96875 114.41626 159.57812 113.79126Q159.20312 113.150635 158.35938 113.150635Q157.53125 113.150635 157.14062 113.79126Q156.76562 114.41626 156.76562 115.713135L156.76562 117.44751Q156.76562 118.82251 157.15625 119.494385Q157.5625 120.150635 158.375 120.150635Q159.17188 120.150635 159.5625 119.525635Q159.95312 118.900635 159.96875 117.57251L159.96875 115.79126ZM166.96875 112.38501L166.96875 113.29126L166.76562 113.29126Q165.5 113.32251 164.75 114.056885Q164.0 114.775635 163.875 116.088135Q164.5625 115.32251 165.71875 115.32251Q166.82812 115.32251 167.5 116.10376Q168.17188 116.88501 168.17188 118.13501Q168.17188 119.44751 167.45312 120.244385Q166.73438 121.04126 165.51562 121.04126Q164.29688 121.04126 163.53125 120.10376Q162.78125 119.150635 162.78125 117.66626L162.78125 117.26001Q162.78125 114.900635 163.78125 113.650635Q164.78125 112.400635 166.76562 112.38501L166.96875 112.38501ZM165.54688 116.22876Q164.98438 116.22876 164.51562 116.556885Q164.04688 116.88501 163.85938 117.400635L163.85938 117.79126Q163.85938 118.85376 164.32812 119.494385Q164.8125 120.13501 165.51562 120.13501Q166.25 120.13501 166.67188 119.60376Q167.09375 119.056885 167.09375 118.181885Q167.09375 117.306885 166.67188 116.775635Q166.25 116.22876 165.54688 116.22876ZM174.28125 118.056885L175.46875 118.056885L175.46875 118.931885L174.28125 118.931885L174.28125 120.91626L173.20312 120.91626L173.20312 118.931885L169.3125 118.931885L169.3125 118.29126L173.125 112.38501L174.28125 112.38501L174.28125 118.056885ZM170.54688 118.056885L173.20312 118.056885L173.20312 113.869385L173.0625 114.10376L170.54688 118.056885ZM182.0625 117.275635Q182.0625 119.181885 181.40625 120.119385Q180.76562 121.04126 179.375 121.04126Q178.01562 121.04126 177.35938 120.13501Q176.70312 119.22876 176.67188 117.41626L176.67188 115.97876Q176.67188 114.088135 177.3125 113.181885Q177.96875 112.26001 179.35938 112.26001Q180.73438 112.26001 181.39062 113.150635Q182.04688 114.025635 182.0625 115.869385L182.0625 117.275635ZM180.96875 115.79126Q180.96875 114.41626 180.57812 113.79126Q180.20312 113.150635 179.35938 113.150635Q178.53125 113.150635 178.14062 113.79126Q177.76562 114.41626 177.76562 115.713135L177.76562 117.44751Q177.76562 118.82251 178.15625 119.494385Q178.5625 120.150635 179.375 120.150635Q180.17188 120.150635 180.5625 119.525635Q180.95312 118.900635 180.96875 117.57251L180.96875 115.79126ZM188.89062 114.60376Q188.89062 115.244385 188.54688 115.744385Q188.20312 116.244385 187.64062 116.525635Q188.29688 116.806885 188.6875 117.369385Q189.07812 117.91626 189.07812 118.619385Q189.07812 119.713135 188.32812 120.38501Q187.59375 121.04126 186.375 121.04126Q185.14062 121.04126 184.39062 120.38501Q183.65625 119.713135 183.65625 118.619385Q183.65625 117.91626 184.03125 117.369385Q184.40625 116.806885 185.07812 116.525635Q184.51562 116.244385 184.1875 115.744385Q183.85938 115.244385 183.85938 114.60376Q183.85938 113.525635 184.54688 112.900635Q185.23438 112.26001 186.375 112.26001Q187.5 112.26001 188.1875 112.900635Q188.89062 113.525635 188.89062 114.60376ZM188.0 118.588135Q188.0 117.869385 187.54688 117.431885Q187.09375 116.97876 186.35938 116.97876Q185.625 116.97876 185.17188 117.431885Q184.73438 117.869385 184.73438 118.60376Q184.73438 119.32251 185.17188 119.744385Q185.60938 120.150635 186.375 120.150635Q187.125 120.150635 187.5625 119.72876Q188.0 119.306885 188.0 118.588135ZM186.375 113.150635Q185.73438 113.150635 185.32812 113.556885Q184.9375 113.94751 184.9375 114.63501Q184.9375 115.275635 185.32812 115.681885Q185.71875 116.088135 186.35938 116.088135Q187.01562 116.088135 187.40625 115.681885Q187.79688 115.275635 187.79688 114.63501Q187.79688 113.97876 187.39062 113.57251Q186.98438 113.150635 186.375 113.150635Z" fill-rule="nonzero"/><path stroke="#4285f4" stroke-width="3.0" stroke-linejoin="round" stroke-linecap="round" d="M273.0625 153.11859Q273.0625 155.02484 272.40625 155.96234Q271.76562 156.88422 270.375 156.88422Q269.01562 156.88422 268.35938 155.97797Q267.70312 155.07172 267.67188 153.25922L267.67188 151.82172Q267.67188 149.93109 268.3125 149.02484Q268.96875 148.10297 270.35938 148.10297Q271.73438 148.10297 272.39062 148.99359Q273.04688 149.86859 273.0625 151.71234L273.0625 153.11859ZM271.96875 151.63422Q271.96875 150.25922 271.57812 149.63422Q271.20312 148.99359 270.35938 148.99359Q269.53125 148.99359 269.14062 149.63422Q268.76562 150.25922 268.76562 151.55609L268.76562 153.29047Q268.76562 154.66547 269.15625 155.33734Q269.5625 155.99359 270.375 155.99359Q271.17188 155.99359 271.5625 155.36859Q271.95312 154.74359 271.96875 153.41547L271.96875 151.63422ZM274.84375 156.19672Q274.84375 155.91547 275.0 155.72797Q275.17188 155.54047 275.5 155.54047Q275.84375 155.54047 276.01562 155.72797Q276.1875 155.91547 276.1875 156.19672Q276.1875 156.46234 276.01562 156.64984Q275.84375 156.82172 275.5 156.82172Q275.17188 156.82172 275.0 156.64984Q274.84375 156.46234 274.84375 156.19672ZM282.28125 153.89984L283.46875 153.89984L283.46875 154.77484L282.28125 154.77484L282.28125 156.75922L281.20312 156.75922L281.20312 154.77484L277.3125 154.77484L277.3125 154.13422L281.125 148.22797L282.28125 148.22797L282.28125 153.89984ZM278.54688 153.89984L281.20312 153.89984L281.20312 149.71234L281.0625 149.94672L278.54688 153.89984ZM290.29688 156.75922L284.70312 156.75922L284.70312 155.97797L287.65625 152.69672Q288.3125 151.94672 288.5625 151.49359Q288.8125 151.02484 288.8125 150.52484Q288.8125 149.85297 288.40625 149.43109Q288.01562 148.99359 287.32812 148.99359Q286.53125 148.99359 286.07812 149.46234Q285.625 149.91547 285.625 150.74359L284.54688 150.74359Q284.54688 149.55609 285.29688 148.83734Q286.0625 148.10297 287.32812 148.10297Q288.53125 148.10297 289.21875 148.72797Q289.90625 149.35297 289.90625 150.39984Q289.90625 151.64984 288.29688 153.39984L286.01562 155.86859L290.29688 155.86859L290.29688 156.75922ZM295.96875 148.22797L295.96875 149.13422L295.76562 149.13422Q294.5 149.16547 293.75 149.89984Q293.0 150.61859 292.875 151.93109Q293.5625 151.16547 294.71875 151.16547Q295.82812 151.16547 296.5 151.94672Q297.17188 152.72797 297.17188 153.97797Q297.17188 155.29047 296.45312 156.08734Q295.73438 156.88422 294.51562 156.88422Q293.29688 156.88422 292.53125 155.94672Q291.78125 154.99359 291.78125 153.50922L291.78125 153.10297Q291.78125 150.74359 292.78125 149.49359Q293.78125 148.24359 295.76562 148.22797L295.96875 148.22797ZM294.54688 152.07172Q293.98438 152.07172 293.51562 152.39984Q293.04688 152.72797 292.85938 153.24359L292.85938 153.63422Q292.85938 154.69672 293.32812 155.33734Q293.8125 155.97797 294.51562 155.97797Q295.25 155.97797 295.67188 155.44672Q296.09375 154.89984 296.09375 154.02484Q296.09375 153.14984 295.67188 152.61859Q295.25 152.07172 294.54688 152.07172ZM302.85938 153.00922Q302.53125 153.41547 302.04688 153.66547Q301.57812 153.89984 301.01562 153.89984Q300.28125 153.89984 299.73438 153.54047Q299.1875 153.18109 298.89062 152.52484Q298.59375 151.85297 298.59375 151.05609Q298.59375 150.21234 298.90625 149.52484Q299.23438 148.83734 299.82812 148.47797Q300.4375 148.10297 301.23438 148.10297Q302.5 148.10297 303.21875 149.05609Q303.95312 150.00922 303.95312 151.63422L303.95312 151.94672Q303.95312 154.44672 302.96875 155.58734Q301.98438 156.72797 300.0 156.75922L299.78125 156.75922L299.78125 155.85297L300.01562 155.85297Q301.35938 155.82172 302.07812 155.14984Q302.79688 154.47797 302.85938 153.00922ZM301.1875 153.00922Q301.73438 153.00922 302.1875 152.68109Q302.65625 152.33734 302.875 151.85297L302.875 151.41547Q302.875 150.35297 302.40625 149.68109Q301.9375 149.00922 301.23438 149.00922Q300.51562 149.00922 300.07812 149.55609Q299.65625 150.10297 299.65625 151.00922Q299.65625 151.88422 300.0625 152.44672Q300.48438 153.00922 301.1875 153.00922ZM309.26562 156.75922L308.1875 156.75922L308.1875 149.54047L306.0 150.33734L306.0 149.35297L309.10938 148.18109L309.26562 148.18109L309.26562 156.75922ZM317.28125 153.89984L318.46875 153.89984L318.46875 154.77484L317.28125 154.77484L317.28125 156.75922L316.20312 156.75922L316.20312 154.77484L312.3125 154.77484L312.3125 154.13422L316.125 148.22797L317.28125 148.22797L317.28125 153.89984ZM313.54688 153.89984L316.20312 153.89984L316.20312 149.71234L316.0625 149.94672L313.54688 153.89984Z" fill-rule="nonzero"/><path fill="#ffffff" d="M273.0625 153.11859Q273.0625 155.02484 272.40625 155.96234Q271.76562 156.88422 270.375 156.88422Q269.01562 156.88422 268.35938 155.97797Q267.70312 155.07172 267.67188 153.25922L267.67188 151.82172Q267.67188 149.93109 268.3125 149.02484Q268.96875 148.10297 270.35938 148.10297Q271.73438 148.10297 272.39062 148.99359Q273.04688 149.86859 273.0625 151.71234L273.0625 153.11859ZM271.96875 151.63422Q271.96875 150.25922 271.57812 149.63422Q271.20312 148.99359 270.35938 148.99359Q269.53125 148.99359 269.14062 149.63422Q268.76562 150.25922 268.76562 151.55609L268.76562 153.29047Q268.76562 154.66547 269.15625 155.33734Q269.5625 155.99359 270.375 155.99359Q271.17188 155.99359 271.5625 155.36859Q271.95312 154.74359 271.96875 153.41547L271.96875 151.63422ZM274.84375 156.19672Q274.84375 155.91547 275.0 155.72797Q275.17188 155.54047 275.5 155.54047Q275.84375 155.54047 276.01562 155.72797Q276.1875 155.91547 276.1875 156.19672Q276.1875 156.46234 276.01562 156.64984Q275.84375 156.82172 275.5 156.82172Q275.17188 156.82172 275.0 156.64984Q274.84375 156.46234 274.84375 156.19672ZM282.28125 153.89984L283.46875 153.89984L283.46875 154.77484L282.28125 154.77484L282.28125 156.75922L281.20312 156.75922L281.20312 154.77484L277.3125 154.77484L277.3125 154.13422L281.125 148.22797L282.28125 148.22797L282.28125 153.89984ZM278.54688 153.89984L281.20312 153.89984L281.20312 149.71234L281.0625 149.94672L278.54688 153.89984ZM290.29688 156.75922L284.70312 156.75922L284.70312 155.97797L287.65625 152.69672Q288.3125 151.94672 288.5625 151.49359Q288.8125 151.02484 288.8125 150.52484Q288.8125 149.85297 288.40625 149.43109Q288.01562 148.99359 287.32812 148.99359Q286.53125 148.99359 286.07812 149.46234Q285.625 149.91547 285.625 150.74359L284.54688 150.74359Q284.54688 149.55609 285.29688 148.83734Q286.0625 148.10297 287.32812 148.10297Q288.53125 148.10297 289.21875 148.72797Q289.90625 149.35297 289.90625 150.39984Q289.90625 151.64984 288.29688 153.39984L286.01562 155.86859L290.29688 155.86859L290.29688 156.75922ZM295.96875 148.22797L295.96875 149.13422L295.76562 149.13422Q294.5 149.16547 293.75 149.89984Q293.0 150.61859 292.875 151.93109Q293.5625 151.16547 294.71875 151.16547Q295.82812 151.16547 296.5 151.94672Q297.17188 152.72797 297.17188 153.97797Q297.17188 155.29047 296.45312 156.08734Q295.73438 156.88422 294.51562 156.88422Q293.29688 156.88422 292.53125 155.94672Q291.78125 154.99359 291.78125 153.50922L291.78125 153.10297Q291.78125 150.74359 292.78125 149.49359Q293.78125 148.24359 295.76562 148.22797L295.96875 148.22797ZM294.54688 152.07172Q293.98438 152.07172 293.51562 152.39984Q293.04688 152.72797 292.85938 153.24359L292.85938 153.63422Q292.85938 154.69672 293.32812 155.33734Q293.8125 155.97797 294.51562 155.97797Q295.25 155.97797 295.67188 155.44672Q296.09375 154.89984 296.09375 154.02484Q296.09375 153.14984 295.67188 152.61859Q295.25 152.07172 294.54688 152.07172ZM302.85938 153.00922Q302.53125 153.41547 302.04688 153.66547Q301.57812 153.89984 301.01562 153.89984Q300.28125 153.89984 299.73438 153.54047Q299.1875 153.18109 298.89062 152.52484Q298.59375 151.85297 298.59375 151.05609Q298.59375 150.21234 298.90625 149.52484Q299.23438 148.83734 299.82812 148.47797Q300.4375 148.10297 301.23438 148.10297Q302.5 148.10297 303.21875 149.05609Q303.95312 150.00922 303.95312 151.63422L303.95312 151.94672Q303.95312 154.44672 302.96875 155.58734Q301.98438 156.72797 300.0 156.75922L299.78125 156.75922L299.78125 155.85297L300.01562 155.85297Q301.35938 155.82172 302.07812 155.14984Q302.79688 154.47797 302.85938 153.00922ZM301.1875 153.00922Q301.73438 153.00922 302.1875 152.68109Q302.65625 152.33734 302.875 151.85297L302.875 151.41547Q302.875 150.35297 302.40625 149.68109Q301.9375 149.00922 301.23438 149.00922Q300.51562 149.00922 300.07812 149.55609Q299.65625 150.10297 299.65625 151.00922Q299.65625 151.88422 300.0625 152.44672Q300.48438 153.00922 301.1875 153.00922ZM309.26562 156.75922L308.1875 156.75922L308.1875 149.54047L306.0 150.33734L306.0 149.35297L309.10938 148.18109L309.26562 148.18109L309.26562 156.75922ZM317.28125 153.89984L318.46875 153.89984L318.46875 154.77484L317.28125 154.77484L317.28125 156.75922L316.20312 156.75922L316.20312 154.77484L312.3125 154.77484L312.3125 154.13422L316.125 148.22797L317.28125 148.22797L317.28125 153.89984ZM313.54688 153.89984L316.20312 153.89984L316.20312 149.71234L316.0625 149.94672L313.54688 153.89984Z" fill-rule="nonzero"/><path stroke="#4285f4" stroke-width="3.0" stroke-linejoin="round" stroke-linecap="round" d="M401.0625 160.35896Q401.0625 162.26521 400.40625 163.20271Q399.76562 164.12459 398.375 164.12459Q397.01562 164.12459 396.35938 163.21834Q395.70312 162.31209 395.67188 160.49959L395.67188 159.06209Q395.67188 157.17146 396.3125 156.26521Q396.96875 155.34334 398.35938 155.34334Q399.73438 155.34334 400.39062 156.23396Q401.04688 157.10896 401.0625 158.95271L401.0625 160.35896ZM399.96875 158.87459Q399.96875 157.49959 399.57812 156.87459Q399.20312 156.23396 398.35938 156.23396Q397.53125 156.23396 397.14062 156.87459Q396.76562 157.49959 396.76562 158.79646L396.76562 160.53084Q396.76562 161.90584 397.15625 162.57771Q397.5625 163.23396 398.375 163.23396Q399.17188 163.23396 399.5625 162.60896Q399.95312 161.98396 399.96875 160.65584L399.96875 158.87459ZM402.84375 163.43709Q402.84375 163.15584 403.0 162.96834Q403.17188 162.78084 403.5 162.78084Q403.84375 162.78084 404.01562 162.96834Q404.1875 163.15584 404.1875 163.43709Q404.1875 163.70271 404.01562 163.89021Q403.84375 164.06209 403.5 164.06209Q403.17188 164.06209 403.0 163.89021Q402.84375 163.70271 402.84375 163.43709ZM410.28125 161.14021L411.46875 161.14021L411.46875 162.01521L410.28125 162.01521L410.28125 163.99959L409.20312 163.99959L409.20312 162.01521L405.3125 162.01521L405.3125 161.37459L409.125 155.46834L410.28125 155.46834L410.28125 161.14021ZM406.54688 161.14021L409.20312 161.14021L409.20312 156.95271L409.0625 157.18709L406.54688 161.14021ZM416.26562 163.99959L415.1875 163.99959L415.1875 156.78084L413.0 157.57771L413.0 156.59334L416.10938 155.42146L416.26562 155.42146L416.26562 163.99959ZM425.0625 160.35896Q425.0625 162.26521 424.40625 163.20271Q423.76562 164.12459 422.375 164.12459Q421.01562 164.12459 420.35938 163.21834Q419.70312 162.31209 419.67188 160.49959L419.67188 159.06209Q419.67188 157.17146 420.3125 156.26521Q420.96875 155.34334 422.35938 155.34334Q423.73438 155.34334 424.39062 156.23396Q425.04688 157.10896 425.0625 158.95271L425.0625 160.35896ZM423.96875 158.87459Q423.96875 157.49959 423.57812 156.87459Q423.20312 156.23396 422.35938 156.23396Q421.53125 156.23396 421.14062 156.87459Q420.76562 157.49959 420.76562 158.79646L420.76562 160.53084Q420.76562 161.90584 421.15625 162.57771Q421.5625 163.23396 422.375 163.23396Q423.17188 163.23396 423.5625 162.60896Q423.95312 161.98396 423.96875 160.65584L423.96875 158.87459ZM431.89062 157.68709Q431.89062 158.32771 431.54688 158.82771Q431.20312 159.32771 430.64062 159.60896Q431.29688 159.89021 431.6875 160.45271Q432.07812 160.99959 432.07812 161.70271Q432.07812 162.79646 431.32812 163.46834Q430.59375 164.12459 429.375 164.12459Q428.14062 164.12459 427.39062 163.46834Q426.65625 162.79646 426.65625 161.70271Q426.65625 160.99959 427.03125 160.45271Q427.40625 159.89021 428.07812 159.60896Q427.51562 159.32771 427.1875 158.82771Q426.85938 158.32771 426.85938 157.68709Q426.85938 156.60896 427.54688 155.98396Q428.23438 155.34334 429.375 155.34334Q430.5 155.34334 431.1875 155.98396Q431.89062 156.60896 431.89062 157.68709ZM431.0 161.67146Q431.0 160.95271 430.54688 160.51521Q430.09375 160.06209 429.35938 160.06209Q428.625 160.06209 428.17188 160.51521Q427.73438 160.95271 427.73438 161.68709Q427.73438 162.40584 428.17188 162.82771Q428.60938 163.23396 429.375 163.23396Q430.125 163.23396 430.5625 162.81209Q431.0 162.39021 431.0 161.67146ZM429.375 156.23396Q428.73438 156.23396 428.32812 156.64021Q427.9375 157.03084 427.9375 157.71834Q427.9375 158.35896 428.32812 158.76521Q428.71875 159.17146 429.35938 159.17146Q430.01562 159.17146 430.40625 158.76521Q430.79688 158.35896 430.79688 157.71834Q430.79688 157.06209 430.39062 156.65584Q429.98438 156.23396 429.375 156.23396ZM434.20312 159.71834L434.64062 155.46834L439.01562 155.46834L439.01562 156.46834L435.5625 156.46834L435.29688 158.79646Q435.9375 158.42146 436.73438 158.42146Q437.89062 158.42146 438.57812 159.20271Q439.26562 159.96834 439.26562 161.28084Q439.26562 162.59334 438.54688 163.35896Q437.84375 164.12459 436.5625 164.12459Q435.4375 164.12459 434.71875 163.49959Q434.0 162.85896 433.90625 161.74959L434.92188 161.74959Q435.03125 162.48396 435.45312 162.85896Q435.875 163.23396 436.5625 163.23396Q437.3125 163.23396 437.75 162.71834Q438.1875 162.20271 438.1875 161.29646Q438.1875 160.43709 437.71875 159.92146Q437.25 159.40584 436.46875 159.40584Q435.76562 159.40584 435.35938 159.70271L435.07812 159.93709L434.20312 159.71834ZM444.96875 155.46834L444.96875 156.37459L444.76562 156.37459Q443.5 156.40584 442.75 157.14021Q442.0 157.85896 441.875 159.17146Q442.5625 158.40584 443.71875 158.40584Q444.82812 158.40584 445.5 159.18709Q446.17188 159.96834 446.17188 161.21834Q446.17188 162.53084 445.45312 163.32771Q444.73438 164.12459 443.51562 164.12459Q442.29688 164.12459 441.53125 163.18709Q440.78125 162.23396 440.78125 160.74959L440.78125 160.34334Q440.78125 157.98396 441.78125 156.73396Q442.78125 155.48396 444.76562 155.46834L444.96875 155.46834ZM443.54688 159.31209Q442.98438 159.31209 442.51562 159.64021Q442.04688 159.96834 441.85938 160.48396L441.85938 160.87459Q441.85938 161.93709 442.32812 162.57771Q442.8125 163.21834 443.51562 163.21834Q444.25 163.21834 444.67188 162.68709Q445.09375 162.14021 445.09375 161.26521Q445.09375 160.39021 444.67188 159.85896Q444.25 159.31209 443.54688 159.31209Z" fill-rule="nonzero"/><path fill="#ffffff" d="M401.0625 160.35896Q401.0625 162.26521 400.40625 163.20271Q399.76562 164.12459 398.375 164.12459Q397.01562 164.12459 396.35938 163.21834Q395.70312 162.31209 395.67188 160.49959L395.67188 159.06209Q395.67188 157.17146 396.3125 156.26521Q396.96875 155.34334 398.35938 155.34334Q399.73438 155.34334 400.39062 156.23396Q401.04688 157.10896 401.0625 158.95271L401.0625 160.35896ZM399.96875 158.87459Q399.96875 157.49959 399.57812 156.87459Q399.20312 156.23396 398.35938 156.23396Q397.53125 156.23396 397.14062 156.87459Q396.76562 157.49959 396.76562 158.79646L396.76562 160.53084Q396.76562 161.90584 397.15625 162.57771Q397.5625 163.23396 398.375 163.23396Q399.17188 163.23396 399.5625 162.60896Q399.95312 161.98396 399.96875 160.65584L399.96875 158.87459ZM402.84375 163.43709Q402.84375 163.15584 403.0 162.96834Q403.17188 162.78084 403.5 162.78084Q403.84375 162.78084 404.01562 162.96834Q404.1875 163.15584 404.1875 163.43709Q404.1875 163.70271 404.01562 163.89021Q403.84375 164.06209 403.5 164.06209Q403.17188 164.06209 403.0 163.89021Q402.84375 163.70271 402.84375 163.43709ZM410.28125 161.14021L411.46875 161.14021L411.46875 162.01521L410.28125 162.01521L410.28125 163.99959L409.20312 163.99959L409.20312 162.01521L405.3125 162.01521L405.3125 161.37459L409.125 155.46834L410.28125 155.46834L410.28125 161.14021ZM406.54688 161.14021L409.20312 161.14021L409.20312 156.95271L409.0625 157.18709L406.54688 161.14021ZM416.26562 163.99959L415.1875 163.99959L415.1875 156.78084L413.0 157.57771L413.0 156.59334L416.10938 155.42146L416.26562 155.42146L416.26562 163.99959ZM425.0625 160.35896Q425.0625 162.26521 424.40625 163.20271Q423.76562 164.12459 422.375 164.12459Q421.01562 164.12459 420.35938 163.21834Q419.70312 162.31209 419.67188 160.49959L419.67188 159.06209Q419.67188 157.17146 420.3125 156.26521Q420.96875 155.34334 422.35938 155.34334Q423.73438 155.34334 424.39062 156.23396Q425.04688 157.10896 425.0625 158.95271L425.0625 160.35896ZM423.96875 158.87459Q423.96875 157.49959 423.57812 156.87459Q423.20312 156.23396 422.35938 156.23396Q421.53125 156.23396 421.14062 156.87459Q420.76562 157.49959 420.76562 158.79646L420.76562 160.53084Q420.76562 161.90584 421.15625 162.57771Q421.5625 163.23396 422.375 163.23396Q423.17188 163.23396 423.5625 162.60896Q423.95312 161.98396 423.96875 160.65584L423.96875 158.87459ZM431.89062 157.68709Q431.89062 158.32771 431.54688 158.82771Q431.20312 159.32771 430.64062 159.60896Q431.29688 159.89021 431.6875 160.45271Q432.07812 160.99959 432.07812 161.70271Q432.07812 162.79646 431.32812 163.46834Q430.59375 164.12459 429.375 164.12459Q428.14062 164.12459 427.39062 163.46834Q426.65625 162.79646 426.65625 161.70271Q426.65625 160.99959 427.03125 160.45271Q427.40625 159.89021 428.07812 159.60896Q427.51562 159.32771 427.1875 158.82771Q426.85938 158.32771 426.85938 157.68709Q426.85938 156.60896 427.54688 155.98396Q428.23438 155.34334 429.375 155.34334Q430.5 155.34334 431.1875 155.98396Q431.89062 156.60896 431.89062 157.68709ZM431.0 161.67146Q431.0 160.95271 430.54688 160.51521Q430.09375 160.06209 429.35938 160.06209Q428.625 160.06209 428.17188 160.51521Q427.73438 160.95271 427.73438 161.68709Q427.73438 162.40584 428.17188 162.82771Q428.60938 163.23396 429.375 163.23396Q430.125 163.23396 430.5625 162.81209Q431.0 162.39021 431.0 161.67146ZM429.375 156.23396Q428.73438 156.23396 428.32812 156.64021Q427.9375 157.03084 427.9375 157.71834Q427.9375 158.35896 428.32812 158.76521Q428.71875 159.17146 429.35938 159.17146Q430.01562 159.17146 430.40625 158.76521Q430.79688 158.35896 430.79688 157.71834Q430.79688 157.06209 430.39062 156.65584Q429.98438 156.23396 429.375 156.23396ZM434.20312 159.71834L434.64062 155.46834L439.01562 155.46834L439.01562 156.46834L435.5625 156.46834L435.29688 158.79646Q435.9375 158.42146 436.73438 158.42146Q437.89062 158.42146 438.57812 159.20271Q439.26562 159.96834 439.26562 161.28084Q439.26562 162.59334 438.54688 163.35896Q437.84375 164.12459 436.5625 164.12459Q435.4375 164.12459 434.71875 163.49959Q434.0 162.85896 433.90625 161.74959L434.92188 161.74959Q435.03125 162.48396 435.45312 162.85896Q435.875 163.23396 436.5625 163.23396Q437.3125 163.23396 437.75 162.71834Q438.1875 162.20271 438.1875 161.29646Q438.1875 160.43709 437.71875 159.92146Q437.25 159.40584 436.46875 159.40584Q435.76562 159.40584 435.35938 159.70271L435.07812 159.93709L434.20312 159.71834ZM444.96875 155.46834L444.96875 156.37459L444.76562 156.37459Q443.5 156.40584 442.75 157.14021Q442.0 157.85896 441.875 159.17146Q442.5625 158.40584 443.71875 158.40584Q444.82812 158.40584 445.5 159.18709Q446.17188 159.96834 446.17188 161.21834Q446.17188 162.53084 445.45312 163.32771Q444.73438 164.12459 443.51562 164.12459Q442.29688 164.12459 441.53125 163.18709Q440.78125 162.23396 440.78125 160.74959L440.78125 160.34334Q440.78125 157.98396 441.78125 156.73396Q442.78125 155.48396 444.76562 155.46834L444.96875 155.46834ZM443.54688 159.31209Q442.98438 159.31209 442.51562 159.64021Q442.04688 159.96834 441.85938 160.48396L441.85938 160.87459Q441.85938 161.93709 442.32812 162.57771Q442.8125 163.21834 443.51562 163.21834Q444.25 163.21834 444.67188 162.68709Q445.09375 162.14021 445.09375 161.26521Q445.09375 160.39021 444.67188 159.85896Q444.25 159.31209 443.54688 159.31209Z" fill-rule="nonzero"/><path fill="#000000" d="M26.784388 227.63646L26.690638 226.57396Q27.346888 226.49583 27.753138 226.21458Q28.159388 225.93333 28.425013 225.35521Q28.675013 224.76146 28.675013 224.02708Q28.675013 223.38646 28.487513 222.88646Q28.284388 222.38646 27.956263 222.15208Q27.612513 221.90208 27.221888 221.90208Q26.815638 221.90208 26.518763 222.13646Q26.206263 222.37083 26.003138 222.90208Q25.862513 223.26146 25.581263 224.44896Q25.300013 225.62083 25.050013 226.08958Q24.721888 226.71458 24.253138 227.01146Q23.768763 227.30833 23.175013 227.30833Q22.534388 227.30833 21.971888 226.94896Q21.393763 226.57396 21.112513 225.87083Q20.815638 225.15208 20.815638 224.29271Q20.815638 223.33958 21.128138 222.60521Q21.425013 221.87083 22.034388 221.48021Q22.628138 221.08958 23.378138 221.05833L23.456263 222.15208Q22.643763 222.24583 22.237513 222.76146Q21.815638 223.26146 21.815638 224.24583Q21.815638 225.27708 22.190638 225.74583Q22.565638 226.21458 23.096888 226.21458Q23.565638 226.21458 23.862513 225.88646Q24.159388 225.55833 24.471888 224.18333Q24.784388 222.79271 25.018763 222.27708Q25.378138 221.52708 25.909388 221.16771Q26.425013 220.80833 27.128138 220.80833Q27.815638 220.80833 28.425013 221.19896Q29.018763 221.58958 29.362513 222.32396Q29.690638 223.05833 29.690638 223.98021Q29.690638 225.15208 29.362513 225.94896Q29.018763 226.73021 28.331263 227.18333Q27.643763 227.62083 26.784388 227.63646ZM27.550013 215.13646L27.675013 214.04271Q28.628138 214.29271 29.159388 214.99583Q29.690638 215.69896 29.690638 216.77708Q29.690638 218.13646 28.846888 218.94896Q28.003138 219.74583 26.487513 219.74583Q24.925013 219.74583 24.065638 218.93333Q23.190638 218.12083 23.190638 216.83958Q23.190638 215.58958 24.034388 214.80833Q24.878138 214.01146 26.425013 214.01146Q26.518763 214.01146 26.706263 214.01146L26.706263 218.65208Q27.737513 218.58958 28.284388 218.07396Q28.815638 217.55833 28.815638 216.77708Q28.815638 216.19896 28.518763 215.79271Q28.206263 215.37083 27.550013 215.13646ZM25.846888 218.58958L25.846888 215.12083Q25.050013 215.18333 24.659388 215.51146Q24.050013 216.02708 24.050013 216.82396Q24.050013 217.55833 24.534388 218.05833Q25.018763 218.54271 25.846888 218.58958ZM27.268763 208.32396L27.409388 207.29271Q28.471888 207.46458 29.081263 208.16771Q29.690638 208.87083 29.690638 209.88646Q29.690638 211.16771 28.862513 211.94896Q28.018763 212.71458 26.456263 212.71458Q25.456263 212.71458 24.706263 212.38646Q23.940638 212.04271 23.565638 211.37083Q23.190638 210.68333 23.190638 209.87083Q23.190638 208.87083 23.706263 208.23021Q24.206263 207.57396 25.159388 207.38646L25.315638 208.41771Q24.690638 208.55833 24.378138 208.93333Q24.050013 209.30833 24.050013 209.83958Q24.050013 210.63646 24.628138 211.13646Q25.190638 211.63646 26.425013 211.63646Q27.690638 211.63646 28.253138 211.15208Q28.815638 210.66771 28.815638 209.90208Q28.815638 209.27708 28.440638 208.87083Q28.065638 208.44896 27.268763 208.32396ZM26.440638 206.77708Q24.706263 206.77708 23.878138 205.82396Q23.190638 205.02708 23.190638 203.87083Q23.190638 202.58958 24.034388 201.77708Q24.862513 200.94896 26.346888 200.94896Q27.550013 200.94896 28.237513 201.30833Q28.925013 201.66771 29.315638 202.37083Q29.690638 203.05833 29.690638 203.87083Q29.690638 205.16771 28.862513 205.98021Q28.018763 206.77708 26.440638 206.77708ZM26.440638 205.69896Q27.628138 205.69896 28.221888 205.18333Q28.815638 204.65208 28.815638 203.87083Q28.815638 203.07396 28.221888 202.55833Q27.628138 202.04271 26.409388 202.04271Q25.253138 202.04271 24.659388 202.57396Q24.065638 203.08958 24.065638 203.87083Q24.065638 204.65208 24.659388 205.18333Q25.237513 205.69896 26.440638 205.69896ZM29.550013 199.38646L23.331263 199.38646L23.331263 198.44896L24.206263 198.44896Q23.190638 197.76146 23.190638 196.46458Q23.190638 195.90208 23.393763 195.43333Q23.596888 194.94896 23.925013 194.71458Q24.253138 194.48021 24.690638 194.38646Q24.987513 194.33958 25.721888 194.33958L29.550013 194.33958L29.550013 195.38646L25.768763 195.38646Q25.112513 195.38646 24.800013 195.51146Q24.487513 195.63646 24.300013 195.94896Q24.096888 196.26146 24.096888 196.68333Q24.096888 197.35521 24.534388 197.85521Q24.956263 198.33958 26.143763 198.33958L29.550013 198.33958L29.550013 199.38646ZM29.550013 188.35521L28.768763 188.35521Q29.690638 188.94896 29.690638 190.08958Q29.690638 190.83958 29.284388 191.46458Q28.862513 192.08958 28.128138 192.43333Q27.393763 192.77708 26.440638 192.77708Q25.518763 192.77708 24.753138 192.46458Q23.987513 192.15208 23.596888 191.52708Q23.190638 190.90208 23.190638 190.13646Q23.190638 189.57396 23.425013 189.13646Q23.659388 188.69896 24.034388 188.41771L20.956263 188.41771L20.956263 187.37083L29.550013 187.37083L29.550013 188.35521ZM26.440638 191.68333Q27.643763 191.68333 28.237513 191.18333Q28.815638 190.68333 28.815638 189.99583Q28.815638 189.30833 28.253138 188.82396Q27.690638 188.33958 26.534388 188.33958Q25.253138 188.33958 24.659388 188.83958Q24.065638 189.32396 24.065638 190.04271Q24.065638 190.74583 24.643763 191.21458Q25.206263 191.68333 26.440638 191.68333ZM27.690638 185.80833L27.534388 184.77708Q28.159388 184.68333 28.487513 184.29271Q28.815638 183.88646 28.815638 183.15208Q28.815638 182.43333 28.534388 182.08958Q28.237513 181.73021 27.831263 181.73021Q27.471888 181.73021 27.268763 182.04271Q27.128138 182.26146 26.909388 183.12083Q26.612513 184.27708 26.409388 184.73021Q26.190638 185.16771 25.815638 185.40208Q25.440638 185.63646 24.971888 185.63646Q24.565638 185.63646 24.206263 185.44896Q23.846888 185.26146 23.612513 184.93333Q23.440638 184.68333 23.315638 184.26146Q23.190638 183.83958 23.190638 183.33958Q23.190638 182.62083 23.409388 182.07396Q23.612513 181.51146 23.971888 181.24583Q24.331263 180.98021 24.925013 180.88646L25.065638 181.91771Q24.596888 181.98021 24.331263 182.32396Q24.050013 182.65208 24.050013 183.27708Q24.050013 183.99583 24.300013 184.30833Q24.534388 184.62083 24.862513 184.62083Q25.065638 184.62083 25.221888 184.49583Q25.393763 184.35521 25.503138 184.08958Q25.565638 183.93333 25.768763 183.15208Q26.081263 182.02708 26.268763 181.58958Q26.456263 181.15208 26.815638 180.90208Q27.175013 180.65208 27.721888 180.65208Q28.253138 180.65208 28.721888 180.96458Q29.175013 181.26146 29.440638 181.83958Q29.690638 182.41771 29.690638 183.15208Q29.690638 184.37083 29.190638 185.01146Q28.675013 185.63646 27.690638 185.80833Z" fill-rule="nonzero"/><path fill="#000000" d="M55.05 332.21564Q55.05 330.6844 55.3625 329.7625Q55.675 328.825 56.284374 328.325Q56.909374 327.825 57.846874 327.825Q58.534374 327.825 59.05 328.10626Q59.58125 328.3875 59.925 328.91876Q60.26875 329.4344 60.45625 330.1844Q60.64375 330.9344 60.64375 332.21564Q60.64375 333.73126 60.33125 334.65314Q60.034374 335.575 59.409374 336.09064Q58.8 336.59064 57.846874 336.59064Q56.6125 336.59064 55.89375 335.7Q55.05 334.6375 55.05 332.21564ZM56.128124 332.21564Q56.128124 334.325 56.628124 335.02814Q57.128124 335.73126 57.846874 335.73126Q58.58125 335.73126 59.065624 335.02814Q59.565624 334.325 59.565624 332.21564Q59.565624 330.09064 59.065624 329.40314Q58.58125 328.7 57.83125 328.7Q57.1125 328.7 56.675 329.3094Q56.128124 330.09064 56.128124 332.21564ZM62.64375 336.45L62.64375 335.2469L63.846874 335.2469L63.846874 336.45L62.64375 336.45ZM65.05 332.21564Q65.05 330.6844 65.3625 329.7625Q65.675 328.825 66.28438 328.325Q66.90938 327.825 67.84688 327.825Q68.53438 327.825 69.05 328.10626Q69.58125 328.3875 69.925 328.91876Q70.26875 329.4344 70.45625 330.1844Q70.64375 330.9344 70.64375 332.21564Q70.64375 333.73126 70.33125 334.65314Q70.03438 335.575 69.40938 336.09064Q68.8 336.59064 67.84688 336.59064Q66.6125 336.59064 65.89375 335.7Q65.05 334.6375 65.05 332.21564ZM66.12813 332.21564Q66.12813 334.325 66.62813 335.02814Q67.12813 335.73126 67.84688 335.73126Q68.58125 335.73126 69.06563 335.02814Q69.56563 334.325 69.56563 332.21564Q69.56563 330.09064 69.06563 329.40314Q68.58125 328.7 67.83125 328.7Q67.1125 328.7 66.675 329.3094Q66.12813 330.09064 66.12813 332.21564Z" fill-rule="nonzero"/><path fill="#000000" d="M55.05 242.03784Q55.05 240.50659 55.3625 239.58472Q55.675 238.64722 56.284374 238.14722Q56.909374 237.64722 57.846874 237.64722Q58.534374 237.64722 59.05 237.92847Q59.58125 238.20972 59.925 238.74097Q60.26875 239.25659 60.45625 240.00659Q60.64375 240.75659 60.64375 242.03784Q60.64375 243.55347 60.33125 244.47534Q60.034374 245.39722 59.409374 245.91284Q58.8 246.41284 57.846874 246.41284Q56.6125 246.41284 55.89375 245.52222Q55.05 244.45972 55.05 242.03784ZM56.128124 242.03784Q56.128124 244.14722 56.628124 244.85034Q57.128124 245.55347 57.846874 245.55347Q58.58125 245.55347 59.065624 244.85034Q59.565624 244.14722 59.565624 242.03784Q59.565624 239.91284 59.065624 239.22534Q58.58125 238.52222 57.83125 238.52222Q57.1125 238.52222 56.675 239.13159Q56.128124 239.91284 56.128124 242.03784ZM62.64375 246.27222L62.64375 245.06909L63.846874 245.06909L63.846874 246.27222L62.64375 246.27222ZM70.59688 245.25659L70.59688 246.27222L64.90938 246.27222Q64.90938 245.89722 65.03438 245.53784Q65.25313 244.95972 65.72188 244.39722Q66.20625 243.83472 67.1125 243.10034Q68.51875 241.94409 69.00313 241.27222Q69.50313 240.60034 69.50313 240.00659Q69.50313 239.38159 69.05 238.95972Q68.59688 238.52222 67.87813 238.52222Q67.1125 238.52222 66.65938 238.97534Q66.20625 239.42847 66.19063 240.24097L65.1125 240.13159Q65.22188 238.91284 65.94063 238.28784Q66.675 237.64722 67.90938 237.64722Q69.14375 237.64722 69.8625 238.33472Q70.58125 239.02222 70.58125 240.03784Q70.58125 240.55347 70.3625 241.05347Q70.15938 241.53784 69.65938 242.10034Q69.175 242.64722 68.05 243.60034Q67.09688 244.39722 66.81563 244.69409Q66.55 244.97534 66.37813 245.25659L70.59688 245.25659Z" fill-rule="nonzero"/><path fill="#000000" d="M55.05 151.86008Q55.05 150.32883 55.3625 149.40695Q55.675 148.46945 56.284374 147.96945Q56.909374 147.46945 57.846874 147.46945Q58.534374 147.46945 59.05 147.7507Q59.58125 148.03195 59.925 148.5632Q60.26875 149.07883 60.45625 149.82883Q60.64375 150.57883 60.64375 151.86008Q60.64375 153.3757 60.33125 154.29758Q60.034374 155.21945 59.409374 155.73508Q58.8 156.23508 57.846874 156.23508Q56.6125 156.23508 55.89375 155.34445Q55.05 154.28195 55.05 151.86008ZM56.128124 151.86008Q56.128124 153.96945 56.628124 154.67258Q57.128124 155.3757 57.846874 155.3757Q58.58125 155.3757 59.065624 154.67258Q59.565624 153.96945 59.565624 151.86008Q59.565624 149.73508 59.065624 149.04758Q58.58125 148.34445 57.83125 148.34445Q57.1125 148.34445 56.675 148.95383Q56.128124 149.73508 56.128124 151.86008ZM62.64375 156.09445L62.64375 154.89133L63.846874 154.89133L63.846874 156.09445L62.64375 156.09445ZM68.425 156.09445L68.425 154.03195L64.70625 154.03195L64.70625 153.0632L68.62813 147.5007L69.4875 147.5007L69.4875 153.0632L70.64375 153.0632L70.64375 154.03195L69.4875 154.03195L69.4875 156.09445L68.425 156.09445ZM68.425 153.0632L68.425 149.20383L65.7375 153.0632L68.425 153.0632Z" fill-rule="nonzero"/><path fill="#000000" d="M55.05 61.68229Q55.05 60.15104 55.3625 59.229164Q55.675 58.291664 56.284374 57.791664Q56.909374 57.291664 57.846874 57.291664Q58.534374 57.291664 59.05 57.572914Q59.58125 57.854164 59.925 58.385414Q60.26875 58.90104 60.45625 59.65104Q60.64375 60.40104 60.64375 61.68229Q60.64375 63.197914 60.33125 64.11979Q60.034374 65.041664 59.409374 65.55729Q58.8 66.05729 57.846874 66.05729Q56.6125 66.05729 55.89375 65.166664Q55.05 64.104164 55.05 61.68229ZM56.128124 61.68229Q56.128124 63.791664 56.628124 64.49479Q57.128124 65.197914 57.846874 65.197914Q58.58125 65.197914 59.065624 64.49479Q59.565624 63.791664 59.565624 61.68229Q59.565624 59.55729 59.065624 58.86979Q58.58125 58.166664 57.83125 58.166664Q57.1125 58.166664 56.675 58.77604Q56.128124 59.55729 56.128124 61.68229ZM62.64375 65.916664L62.64375 64.71354L63.846874 64.71354L63.846874 65.916664L62.64375 65.916664ZM70.51875 59.43229L69.47188 59.510414Q69.33125 58.885414 69.08125 58.604164Q68.64375 58.15104 68.01875 58.15104Q67.51875 58.15104 67.12813 58.43229Q66.64375 58.80729 66.34688 59.510414Q66.06563 60.197914 66.05 61.479164Q66.425 60.90104 66.97188 60.61979Q67.53438 60.33854 68.14375 60.33854Q69.19063 60.33854 69.925 61.11979Q70.675 61.90104 70.675 63.11979Q70.675 63.93229 70.31563 64.635414Q69.97188 65.322914 69.3625 65.697914Q68.75313 66.05729 67.9875 66.05729Q66.65938 66.05729 65.83125 65.08854Q65.00313 64.11979 65.00313 61.90104Q65.00313 59.40104 65.925 58.27604Q66.72188 57.291664 68.08125 57.291664Q69.09688 57.291664 69.7375 57.86979Q70.39375 58.43229 70.51875 59.43229ZM66.22188 63.135414Q66.22188 63.68229 66.44063 64.18229Q66.675 64.666664 67.08125 64.93229Q67.50313 65.197914 67.97188 65.197914Q68.62813 65.197914 69.1125 64.666664Q69.59688 64.11979 69.59688 63.197914Q69.59688 62.30729 69.1125 61.791664Q68.64375 61.27604 67.925 61.27604Q67.20625 61.27604 66.70625 61.791664Q66.22188 62.30729 66.22188 63.135414Z" fill-rule="nonzero"/><path fill="#000000" d="M151.74977 345.2625Q151.74977 343.1219 152.8904 341.91876Q154.04665 340.7 155.85915 340.7Q157.06227 340.7 158.0154 341.27814Q158.96852 341.84064 159.46852 342.85626Q159.96852 343.8719 159.96852 345.16876Q159.96852 346.46564 159.43727 347.4969Q158.90602 348.52814 157.93727 349.0594Q156.98415 349.59064 155.85915 349.59064Q154.6404 349.59064 153.68727 349.0125Q152.73415 348.41876 152.23415 347.41876Q151.74977 346.40314 151.74977 345.2625ZM152.92165 345.27814Q152.92165 346.84064 153.74977 347.73126Q154.59352 348.6219 155.85915 348.6219Q157.1404 348.6219 157.96852 347.73126Q158.79665 346.825 158.79665 345.15314Q158.79665 344.10626 158.43727 343.325Q158.09352 342.54376 157.40602 342.1219Q156.71852 341.6844 155.87477 341.6844Q154.67165 341.6844 153.79665 342.5125Q152.92165 343.34064 152.92165 345.27814ZM161.06227 349.45L161.06227 340.85626L162.78102 340.85626L164.81227 346.9344Q165.09352 347.79376 165.21852 348.21564Q165.35915 347.7469 165.67165 346.84064L167.73415 340.85626L169.2654 340.85626L169.2654 349.45L168.17165 349.45L168.17165 342.2625L165.67165 349.45L164.6404 349.45L162.15602 342.1375L162.15602 349.45L161.06227 349.45ZM170.09352 349.45L170.09352 340.85626L173.34352 340.85626Q174.18727 340.85626 174.6404 340.9344Q175.28102 341.04376 175.7029 341.34064Q176.1404 341.6375 176.3904 342.16876Q176.65602 342.7 176.65602 343.34064Q176.65602 344.4344 175.9529 345.2Q175.2654 345.95 173.43727 345.95L171.23415 345.95L171.23415 349.45L170.09352 349.45ZM171.23415 344.95L173.4529 344.95Q174.56227 344.95 175.0154 344.54376Q175.48415 344.1219 175.48415 343.3719Q175.48415 342.84064 175.2029 342.46564Q174.93727 342.075 174.49977 341.95Q174.2029 341.8719 173.43727 341.8719L171.23415 341.8719L171.23415 344.95Z" fill-rule="nonzero"/><path fill="#000000" d="M262.57812 345.2625Q262.57812 343.1219 263.71875 341.91876Q264.875 340.7 266.6875 340.7Q267.89062 340.7 268.84375 341.27814Q269.79688 341.84064 270.29688 342.85626Q270.79688 343.8719 270.79688 345.16876Q270.79688 346.46564 270.26562 347.4969Q269.73438 348.52814 268.76562 349.0594Q267.8125 349.59064 266.6875 349.59064Q265.46875 349.59064 264.51562 349.0125Q263.5625 348.41876 263.0625 347.41876Q262.57812 346.40314 262.57812 345.2625ZM263.75 345.27814Q263.75 346.84064 264.57812 347.73126Q265.42188 348.6219 266.6875 348.6219Q267.96875 348.6219 268.79688 347.73126Q269.625 346.825 269.625 345.15314Q269.625 344.10626 269.26562 343.325Q268.92188 342.54376 268.23438 342.1219Q267.54688 341.6844 266.70312 341.6844Q265.5 341.6844 264.625 342.5125Q263.75 343.34064 263.75 345.27814ZM271.89062 349.45L271.89062 340.85626L273.60938 340.85626L275.64062 346.9344Q275.92188 347.79376 276.04688 348.21564Q276.1875 347.7469 276.5 346.84064L278.5625 340.85626L280.09375 340.85626L280.09375 349.45L279.0 349.45L279.0 342.2625L276.5 349.45L275.46875 349.45L272.98438 342.1375L272.98438 349.45L271.89062 349.45ZM280.92188 349.45L280.92188 340.85626L284.17188 340.85626Q285.01562 340.85626 285.46875 340.9344Q286.10938 341.04376 286.53125 341.34064Q286.96875 341.6375 287.21875 342.16876Q287.48438 342.7 287.48438 343.34064Q287.48438 344.4344 286.78125 345.2Q286.09375 345.95 284.26562 345.95L282.0625 345.95L282.0625 349.45L280.92188 349.45ZM282.0625 344.95L284.28125 344.95Q285.39062 344.95 285.84375 344.54376Q286.3125 344.1219 286.3125 343.3719Q286.3125 342.84064 286.03125 342.46564Q285.76562 342.075 285.32812 341.95Q285.03125 341.8719 284.26562 341.8719L282.0625 341.8719L282.0625 344.95ZM291.0 348.0594L291.0 345.7L288.67188 345.7L288.67188 344.71564L291.0 344.71564L291.0 342.3875L292.0 342.3875L292.0 344.71564L294.34375 344.71564L294.34375 345.7L292.0 345.7L292.0 348.0594L291.0 348.0594ZM294.98438 349.45L298.28125 340.85626L299.5 340.85626L303.01562 349.45L301.73438 349.45L300.71875 346.84064L297.14062 346.84064L296.1875 349.45L294.98438 349.45ZM297.46875 345.91876L300.375 345.91876L299.48438 343.54376Q299.0625 342.46564 298.875 341.7625Q298.70312 342.59064 298.40625 343.40314L297.46875 345.91876ZM305.375 349.45L302.04688 340.85626L303.28125 340.85626L305.51562 347.10626Q305.78125 347.85626 305.96875 348.5125Q306.17188 347.8094 306.4375 347.10626L308.75 340.85626L309.90625 340.85626L306.54688 349.45L305.375 349.45ZM309.04688 349.45L312.375 344.96564L309.45312 340.85626L310.79688 340.85626L312.35938 343.0594Q312.84375 343.7469 313.04688 344.1219Q313.34375 343.65314 313.73438 343.1375L315.45312 340.85626L316.6875 340.85626L313.67188 344.90314L316.92188 349.45L315.51562 349.45L313.35938 346.3875Q313.17188 346.1219 312.98438 345.8094Q312.70312 346.27814 312.57812 346.45L310.42188 349.45L309.04688 349.45ZM322.04688 348.4344L322.04688 349.45L316.35938 349.45Q316.35938 349.075 316.48438 348.71564Q316.70312 348.1375 317.17188 347.575Q317.65625 347.0125 318.5625 346.27814Q319.96875 345.1219 320.45312 344.45Q320.95312 343.77814 320.95312 343.1844Q320.95312 342.5594 320.5 342.1375Q320.04688 341.7 319.32812 341.7Q318.5625 341.7 318.10938 342.15314Q317.65625 342.60626 317.64062 343.41876L316.5625 343.3094Q316.67188 342.09064 317.39062 341.46564Q318.125 340.825 319.35938 340.825Q320.59375 340.825 321.3125 341.5125Q322.03125 342.2 322.03125 343.21564Q322.03125 343.73126 321.8125 344.23126Q321.60938 344.71564 321.10938 345.27814Q320.625 345.825 319.5 346.77814Q318.54688 347.575 318.26562 347.8719Q318.0 348.15314 317.82812 348.4344L322.04688 348.4344Z" fill-rule="nonzero"/><path fill="#000000" d="M383.12524 351.84064L383.12524 343.23126L384.07837 343.23126L384.07837 344.02814Q384.42212 343.5594 384.844 343.325Q385.2815 343.09064 385.89087 343.09064Q386.68774 343.09064 387.29712 343.4969Q387.9065 343.90314 388.20337 344.65314Q388.51587 345.40314 388.51587 346.29376Q388.51587 347.2469 388.17212 348.0125Q387.844 348.77814 387.18774 349.1844Q386.5315 349.59064 385.81274 349.59064Q385.2815 349.59064 384.85962 349.3719Q384.43774 349.1375 384.17212 348.8094L384.17212 351.84064L383.12524 351.84064ZM384.07837 346.3719Q384.07837 347.575 384.56274 348.15314Q385.04712 348.71564 385.73462 348.71564Q386.43774 348.71564 386.93774 348.1219Q387.43774 347.52814 387.43774 346.27814Q387.43774 345.09064 386.95337 344.5125Q386.469 343.91876 385.7815 343.91876Q385.10962 343.91876 384.594 344.54376Q384.07837 345.16876 384.07837 346.3719ZM392.42212 348.5125L392.57837 349.4344Q392.12524 349.52814 391.7815 349.52814Q391.20337 349.52814 390.89087 349.35626Q390.57837 349.16876 390.43774 348.8719Q390.31274 348.575 390.31274 347.6219L390.31274 344.04376L389.54712 344.04376L389.54712 343.23126L390.31274 343.23126L390.31274 341.6844L391.35962 341.0594L391.35962 343.23126L392.42212 343.23126L392.42212 344.04376L391.35962 344.04376L391.35962 347.6844Q391.35962 348.1375 391.4065 348.2625Q391.469 348.3875 391.594 348.46564Q391.719 348.54376 391.95337 348.54376Q392.14087 348.54376 392.42212 348.5125ZM393.12524 349.45L393.12524 340.85626L394.17212 340.85626L394.17212 343.9344Q394.9065 343.09064 396.0315 343.09064Q396.73462 343.09064 397.23462 343.3719Q397.75024 343.6375 397.969 344.1219Q398.18774 344.59064 398.18774 345.5125L398.18774 349.45L397.14087 349.45L397.14087 345.5125Q397.14087 344.71564 396.79712 344.35626Q396.45337 343.9969 395.82837 343.9969Q395.35962 343.9969 394.93774 344.2469Q394.5315 344.48126 394.344 344.90314Q394.17212 345.3094 394.17212 346.04376L394.17212 349.45L393.12524 349.45ZM400.10962 349.45L400.10962 343.23126L401.06274 343.23126L401.06274 344.16876Q401.42212 343.5125 401.719 343.3094Q402.0315 343.09064 402.4065 343.09064Q402.93774 343.09064 403.48462 343.41876L403.12524 344.40314Q402.73462 344.16876 402.35962 344.16876Q402.00024 344.16876 401.719 344.3875Q401.45337 344.59064 401.344 344.96564Q401.1565 345.52814 401.1565 346.1844L401.1565 349.45L400.10962 349.45ZM408.37524 347.45L409.469 347.575Q409.219 348.52814 408.51587 349.0594Q407.81274 349.59064 406.73462 349.59064Q405.37524 349.59064 404.56274 348.7469Q403.76587 347.90314 403.76587 346.3875Q403.76587 344.825 404.57837 343.96564Q405.39087 343.09064 406.67212 343.09064Q407.92212 343.09064 408.70337 343.9344Q409.50024 344.77814 409.50024 346.325Q409.50024 346.41876 409.50024 346.60626L404.85962 346.60626Q404.92212 347.6375 405.43774 348.1844Q405.95337 348.71564 406.73462 348.71564Q407.31274 348.71564 407.719 348.41876Q408.14087 348.10626 408.37524 347.45ZM404.92212 345.7469L408.39087 345.7469Q408.32837 344.95 408.00024 344.5594Q407.48462 343.95 406.68774 343.95Q405.95337 343.95 405.45337 344.4344Q404.969 344.91876 404.92212 345.7469ZM415.18774 348.6844Q414.594 349.1844 414.04712 349.3875Q413.51587 349.59064 412.89087 349.59064Q411.85962 349.59064 411.31274 349.09064Q410.76587 348.59064 410.76587 347.8094Q410.76587 347.35626 410.969 346.98126Q411.17212 346.59064 411.51587 346.3719Q411.85962 346.1375 412.2815 346.02814Q412.57837 345.9344 413.219 345.85626Q414.48462 345.71564 415.094 345.4969Q415.094 345.27814 415.094 345.23126Q415.094 344.575 414.79712 344.3094Q414.39087 343.96564 413.594 343.96564Q412.85962 343.96564 412.50024 344.23126Q412.14087 344.48126 411.969 345.1375L410.93774 344.9969Q411.07837 344.34064 411.4065 343.9344Q411.73462 343.52814 412.344 343.3094Q412.95337 343.09064 413.75024 343.09064Q414.54712 343.09064 415.04712 343.27814Q415.54712 343.46564 415.7815 343.7469Q416.01587 344.02814 416.10962 344.46564Q416.1565 344.73126 416.1565 345.4344L416.1565 346.84064Q416.1565 348.3094 416.219 348.7Q416.29712 349.09064 416.50024 349.45L415.39087 349.45Q415.23462 349.1219 415.18774 348.6844ZM415.094 346.325Q414.51587 346.5594 413.37524 346.73126Q412.719 346.825 412.45337 346.95Q412.18774 347.0594 412.0315 347.27814Q411.89087 347.4969 411.89087 347.77814Q411.89087 348.2 412.20337 348.48126Q412.5315 348.7625 413.14087 348.7625Q413.75024 348.7625 414.219 348.4969Q414.70337 348.23126 414.92212 347.7625Q415.094 347.40314 415.094 346.71564L415.094 346.325ZM422.1565 349.45L422.1565 348.66876Q421.56274 349.59064 420.42212 349.59064Q419.67212 349.59064 419.04712 349.1844Q418.42212 348.7625 418.07837 348.02814Q417.73462 347.29376 417.73462 346.34064Q417.73462 345.41876 418.04712 344.65314Q418.35962 343.8875 418.98462 343.4969Q419.60962 343.09064 420.37524 343.09064Q420.93774 343.09064 421.37524 343.325Q421.81274 343.5594 422.094 343.9344L422.094 340.85626L423.14087 340.85626L423.14087 349.45L422.1565 349.45ZM418.82837 346.34064Q418.82837 347.54376 419.32837 348.1375Q419.82837 348.71564 420.51587 348.71564Q421.20337 348.71564 421.68774 348.15314Q422.17212 347.59064 422.17212 346.4344Q422.17212 345.15314 421.67212 344.5594Q421.18774 343.96564 420.469 343.96564Q419.76587 343.96564 419.29712 344.54376Q418.82837 345.10626 418.82837 346.34064ZM427.32837 348.0594L427.32837 345.7L425.00024 345.7L425.00024 344.71564L427.32837 344.71564L427.32837 342.3875L428.32837 342.3875L428.32837 344.71564L430.67212 344.71564L430.67212 345.7L428.32837 345.7L428.32837 348.0594L427.32837 348.0594ZM431.31274 349.45L434.60962 340.85626L435.82837 340.85626L439.344 349.45L438.06274 349.45L437.04712 346.84064L433.469 346.84064L432.51587 349.45L431.31274 349.45ZM433.79712 345.91876L436.70337 345.91876L435.81274 343.54376Q435.39087 342.46564 435.20337 341.7625Q435.0315 342.59064 434.73462 343.40314L433.79712 345.91876ZM441.70337 349.45L438.37524 340.85626L439.60962 340.85626L441.844 347.10626Q442.10962 347.85626 442.29712 348.5125Q442.50024 347.8094 442.76587 347.10626L445.07837 340.85626L446.23462 340.85626L442.87524 349.45L441.70337 349.45ZM445.37524 349.45L448.70337 344.96564L445.7815 340.85626L447.12524 340.85626L448.68774 343.0594Q449.17212 343.7469 449.37524 344.1219Q449.67212 343.65314 450.06274 343.1375L451.7815 340.85626L453.01587 340.85626L450.00024 344.90314L453.25024 349.45L451.844 349.45L449.68774 346.3875Q449.50024 346.1219 449.31274 345.8094Q449.0315 346.27814 448.9065 346.45L446.75024 349.45L445.37524 349.45ZM458.37524 348.4344L458.37524 349.45L452.68774 349.45Q452.68774 349.075 452.81274 348.71564Q453.0315 348.1375 453.50024 347.575Q453.98462 347.0125 454.89087 346.27814Q456.29712 345.1219 456.7815 344.45Q457.2815 343.77814 457.2815 343.1844Q457.2815 342.5594 456.82837 342.1375Q456.37524 341.7 455.6565 341.7Q454.89087 341.7 454.43774 342.15314Q453.98462 342.60626 453.969 343.41876L452.89087 343.3094Q453.00024 342.09064 453.719 341.46564Q454.45337 340.825 455.68774 340.825Q456.92212 340.825 457.64087 341.5125Q458.35962 342.2 458.35962 343.21564Q458.35962 343.73126 458.14087 344.23126Q457.93774 344.71564 457.43774 345.27814Q456.95337 345.825 455.82837 346.77814Q454.87524 347.575 454.594 347.8719Q454.32837 348.15314 454.1565 348.4344L458.37524 348.4344Z" fill-rule="nonzero"/><path fill="#757575" d="M20.128124 37.55L20.128124 23.2375L30.4875 23.2375L30.4875 24.925L22.034374 24.925L22.034374 29.3L29.940624 29.3L29.940624 30.9875L22.034374 30.9875L22.034374 35.8625L30.815624 35.8625L30.815624 37.55L20.128124 37.55ZM31.690624 37.55L35.4875 32.159374L31.9875 27.175L34.175 27.175L35.76875 29.6125Q36.221874 30.3 36.4875 30.76875Q36.925 30.128124 37.284374 29.628124L39.034374 27.175L41.128124 27.175L37.55 32.065624L41.409374 37.55L39.253124 37.55L37.1125 34.33125L36.55 33.45625L33.83125 37.55L31.690624 37.55ZM48.971874 34.20625L50.784374 34.440624Q50.3625 36.01875 49.190624 36.909374Q48.034374 37.784374 46.221874 37.784374Q43.95625 37.784374 42.6125 36.39375Q41.284374 34.9875 41.284374 32.45625Q41.284374 29.83125 42.628124 28.39375Q43.971874 26.940624 46.128124 26.940624Q48.20625 26.940624 49.51875 28.3625Q50.846874 29.76875 50.846874 32.346874Q50.846874 32.503124 50.83125 32.815624L43.096874 32.815624Q43.190624 34.51875 44.065624 35.425Q44.940624 36.33125 46.2375 36.33125Q47.20625 36.33125 47.878124 35.83125Q48.565624 35.315624 48.971874 34.20625ZM43.190624 31.3625L48.9875 31.3625Q48.878124 30.065624 48.33125 29.409374Q47.4875 28.39375 46.14375 28.39375Q44.940624 28.39375 44.1125 29.20625Q43.284374 30.003124 43.190624 31.3625ZM59.64375 33.753124L61.3625 33.971874Q61.08125 35.76875 59.909374 36.784374Q58.753124 37.784374 57.05 37.784374Q54.925 37.784374 53.628124 36.39375Q52.33125 35.003124 52.33125 32.409374Q52.33125 30.721874 52.878124 29.471874Q53.440624 28.20625 54.58125 27.58125Q55.721874 26.940624 57.065624 26.940624Q58.753124 26.940624 59.815624 27.8Q60.89375 28.659374 61.20625 30.221874L59.4875 30.4875Q59.253124 29.440624 58.628124 28.925Q58.003124 28.39375 57.128124 28.39375Q55.8 28.39375 54.971874 29.346874Q54.14375 30.3 54.14375 32.346874Q54.14375 34.440624 54.940624 35.39375Q55.7375 36.33125 57.034374 36.33125Q58.065624 36.33125 58.753124 35.70625Q59.45625 35.065624 59.64375 33.753124ZM69.65938 37.55L69.65938 36.01875Q68.45625 37.784374 66.37813 37.784374Q65.45625 37.784374 64.65938 37.440624Q63.8625 37.08125 63.471874 36.55Q63.096874 36.01875 62.940624 35.2375Q62.83125 34.721874 62.83125 33.596874L62.83125 27.175L64.58125 27.175L64.58125 32.925Q64.58125 34.3 64.69063 34.784374Q64.8625 35.471874 65.39375 35.878124Q65.94063 36.26875 66.72188 36.26875Q67.51875 36.26875 68.20625 35.8625Q68.90938 35.45625 69.19063 34.76875Q69.4875 34.065624 69.4875 32.7375L69.4875 27.175L71.2375 27.175L71.2375 37.55L69.65938 37.55ZM76.70625 35.971874L76.95625 37.534374Q76.22188 37.690624 75.62813 37.690624Q74.675 37.690624 74.14375 37.39375Q73.62813 37.08125 73.40938 36.596874Q73.19063 36.096874 73.19063 34.51875L73.19063 28.55L71.90938 28.55L71.90938 27.175L73.19063 27.175L73.19063 24.6125L74.94063 23.55L74.94063 27.175L76.70625 27.175L76.70625 28.55L74.94063 28.55L74.94063 34.6125Q74.94063 35.3625 75.03438 35.58125Q75.12813 35.784374 75.33125 35.925Q75.55 36.05 75.94063 36.05Q76.22188 36.05 76.70625 35.971874ZM78.87813 25.253124L78.87813 23.2375L80.64375 23.2375L80.64375 25.253124L78.87813 25.253124ZM78.87813 37.55L78.87813 27.175L80.64375 27.175L80.64375 37.55L78.87813 37.55ZM82.22188 32.3625Q82.22188 29.4875 83.81563 28.096874Q85.15938 26.940624 87.08125 26.940624Q89.22188 26.940624 90.56563 28.346874Q91.925 29.753124 91.925 32.221874Q91.925 34.221874 91.33125 35.378124Q90.7375 36.51875 89.58125 37.159374Q88.44063 37.784374 87.08125 37.784374Q84.89375 37.784374 83.55 36.39375Q82.22188 34.9875 82.22188 32.3625ZM84.01875 32.3625Q84.01875 34.3625 84.87813 35.346874Q85.75313 36.33125 87.08125 36.33125Q88.39375 36.33125 89.25313 35.346874Q90.12813 34.346874 90.12813 32.3Q90.12813 30.378124 89.25313 29.39375Q88.37813 28.39375 87.08125 28.39375Q85.75313 28.39375 84.87813 29.39375Q84.01875 30.378124 84.01875 32.3625ZM93.8625 37.55L93.8625 27.175L95.45625 27.175L95.45625 28.659374Q96.59688 26.940624 98.75313 26.940624Q99.69063 26.940624 100.47188 27.284374Q101.26875 27.6125 101.65938 28.159374Q102.05 28.70625 102.20625 29.45625Q102.3 29.95625 102.3 31.175L102.3 37.55L100.53438 37.55L100.53438 31.2375Q100.53438 30.159374 100.33125 29.628124Q100.12813 29.096874 99.59688 28.784374Q99.08125 28.471874 98.37813 28.471874Q97.25313 28.471874 96.44063 29.190624Q95.62813 29.89375 95.62813 31.878124L95.62813 37.55L93.8625 37.55ZM113.7375 37.55L113.7375 24.925L109.01875 24.925L109.01875 23.2375L120.3625 23.2375L120.3625 24.925L115.62813 24.925L115.62813 37.55L113.7375 37.55ZM121.87813 25.253124L121.87813 23.2375L123.64375 23.2375L123.64375 25.253124L121.87813 25.253124ZM121.87813 37.55L121.87813 27.175L123.64375 27.175L123.64375 37.55L121.87813 37.55ZM125.8625 37.55L125.8625 27.175L127.44063 27.175L127.44063 28.628124Q127.925 27.878124 128.7375 27.409374Q129.55 26.940624 130.58125 26.940624Q131.7375 26.940624 132.47188 27.425Q133.20625 27.89375 133.51875 28.753124Q134.75313 26.940624 136.72188 26.940624Q138.26875 26.940624 139.09688 27.8Q139.925 28.659374 139.925 30.425L139.925 37.55L138.175 37.55L138.175 31.01875Q138.175 29.95625 138.00313 29.503124Q137.83125 29.034374 137.37813 28.753124Q136.94063 28.471874 136.33125 28.471874Q135.2375 28.471874 134.50313 29.20625Q133.78438 29.925 133.78438 31.51875L133.78438 37.55L132.03438 37.55L132.03438 30.815624Q132.03438 29.64375 131.59688 29.065624Q131.175 28.471874 130.19063 28.471874Q129.45625 28.471874 128.81563 28.8625Q128.19063 29.253124 127.90938 30.003124Q127.62813 30.753124 127.62813 32.175L127.62813 37.55L125.8625 37.55ZM148.97188 34.20625L150.78438 34.440624Q150.3625 36.01875 149.19063 36.909374Q148.03438 37.784374 146.22188 37.784374Q143.95625 37.784374 142.6125 36.39375Q141.28438 34.9875 141.28438 32.45625Q141.28438 29.83125 142.62813 28.39375Q143.97188 26.940624 146.12813 26.940624Q148.20625 26.940624 149.51875 28.3625Q150.84688 29.76875 150.84688 32.346874Q150.84688 32.503124 150.83125 32.815624L143.09688 32.815624Q143.19063 34.51875 144.06563 35.425Q144.94063 36.33125 146.2375 36.33125Q147.20625 36.33125 147.87813 35.83125Q148.56563 35.315624 148.97188 34.20625ZM143.19063 31.3625L148.9875 31.3625Q148.87813 30.065624 148.33125 29.409374Q147.4875 28.39375 146.14375 28.39375Q144.94063 28.39375 144.1125 29.20625Q143.28438 30.003124 143.19063 31.3625ZM153.33125 37.55L153.33125 35.55L155.33125 35.55L155.33125 37.55Q155.33125 38.659374 154.94063 39.33125Q154.55 40.01875 153.70625 40.378124L153.20625 39.628124Q153.76875 39.39375 154.03438 38.909374Q154.3 38.440624 154.33125 37.55L153.33125 37.55ZM171.00313 37.55L169.2375 37.55L169.2375 26.346874Q168.6125 26.95625 167.58125 27.565624Q166.55 28.159374 165.72188 28.471874L165.72188 26.76875Q167.20625 26.08125 168.3 25.096874Q169.40938 24.096874 169.8625 23.175L171.00313 23.175L171.00313 37.55ZM182.01875 37.55L182.01875 23.2375L187.39375 23.2375Q189.03438 23.2375 190.01875 23.675Q191.00313 24.096874 191.56563 25.003124Q192.12813 25.909374 192.12813 26.89375Q192.12813 27.815624 191.62813 28.628124Q191.14375 29.440624 190.12813 29.925Q191.425 30.315624 192.12813 31.2375Q192.83125 32.14375 192.83125 33.39375Q192.83125 34.409374 192.39375 35.26875Q191.97188 36.128124 191.34688 36.596874Q190.72188 37.065624 189.78438 37.315624Q188.84688 37.55 187.47188 37.55L182.01875 37.55ZM183.90938 29.253124L187.00313 29.253124Q188.26875 29.253124 188.81563 29.08125Q189.53438 28.8625 189.89375 28.378124Q190.26875 27.878124 190.26875 27.1125Q190.26875 26.409374 189.925 25.8625Q189.58125 25.315624 188.94063 25.128124Q188.31563 24.925 186.76875 24.925L183.90938 24.925L183.90938 29.253124ZM183.90938 35.8625L187.47188 35.8625Q188.39375 35.8625 188.76875 35.784374Q189.425 35.675 189.8625 35.409374Q190.3 35.128124 190.58125 34.6125Q190.8625 34.08125 190.8625 33.39375Q190.8625 32.596874 190.45625 32.003124Q190.05 31.409374 189.31563 31.175Q188.58125 30.940624 187.22188 30.940624L183.90938 30.940624L183.90938 35.8625ZM194.87813 25.253124L194.87813 23.2375L196.64375 23.2375L196.64375 25.253124L194.87813 25.253124ZM194.87813 37.55L194.87813 27.175L196.64375 27.175L196.64375 37.55L194.87813 37.55ZM198.83125 37.55L198.83125 23.2375L200.58125 23.2375L200.58125 37.55L198.83125 37.55ZM202.83125 37.55L202.83125 23.2375L204.58125 23.2375L204.58125 37.55L202.83125 37.55ZM206.87813 25.253124L206.87813 23.2375L208.64375 23.2375L208.64375 25.253124L206.87813 25.253124ZM206.87813 37.55L206.87813 27.175L208.64375 27.175L208.64375 37.55L206.87813 37.55ZM210.22188 32.3625Q210.22188 29.4875 211.81563 28.096874Q213.15938 26.940624 215.08125 26.940624Q217.22188 26.940624 218.56563 28.346874Q219.925 29.753124 219.925 32.221874Q219.925 34.221874 219.33125 35.378124Q218.7375 36.51875 217.58125 37.159374Q216.44063 37.784374 215.08125 37.784374Q212.89375 37.784374 211.55 36.39375Q210.22188 34.9875 210.22188 32.3625ZM212.01875 32.3625Q212.01875 34.3625 212.87813 35.346874Q213.75313 36.33125 215.08125 36.33125Q216.39375 36.33125 217.25313 35.346874Q218.12813 34.346874 218.12813 32.3Q218.12813 30.378124 217.25313 29.39375Q216.37813 28.39375 215.08125 28.39375Q213.75313 28.39375 212.87813 29.39375Q212.01875 30.378124 212.01875 32.3625ZM221.8625 37.55L221.8625 27.175L223.45625 27.175L223.45625 28.659374Q224.59688 26.940624 226.75313 26.940624Q227.69063 26.940624 228.47188 27.284374Q229.26875 27.6125 229.65938 28.159374Q230.05 28.70625 230.20625 29.45625Q230.3 29.95625 230.3 31.175L230.3 37.55L228.53438 37.55L228.53438 31.2375Q228.53438 30.159374 228.33125 29.628124Q228.12813 29.096874 227.59688 28.784374Q227.08125 28.471874 226.37813 28.471874Q225.25313 28.471874 224.44063 29.190624Q223.62813 29.89375 223.62813 31.878124L223.62813 37.55L221.8625 37.55ZM238.19063 37.55L238.19063 23.2375L247.84688 23.2375L247.84688 24.925L240.08125 24.925L240.08125 29.3625L246.8 29.3625L246.8 31.05L240.08125 31.05L240.08125 37.55L238.19063 37.55ZM250.03438 37.55L250.03438 23.2375L252.89375 23.2375L256.26874 33.3625Q256.7375 34.784374 256.95624 35.4875Q257.20624 34.70625 257.72186 33.190624L261.14374 23.2375L263.6906 23.2375L263.6906 37.55L261.8781 37.55L261.8781 25.565624L257.70624 37.55L256.0031 37.55L251.8625 25.3625L251.8625 37.55L250.03438 37.55ZM265.51874 37.55L271.01874 23.2375L273.0656 23.2375L278.925 37.55L276.76874 37.55L275.09686 33.20625L269.1125 33.20625L267.53436 37.55L265.51874 37.55ZM269.65936 31.675L274.5031 31.675L273.01874 27.70625Q272.33124 25.89375 272.0031 24.7375Q271.72186 26.1125 271.22186 27.471874L269.65936 31.675ZM285.51874 30.58125Q285.51874 27.01875 287.425 25.003124Q289.34686 22.971874 292.3781 22.971874Q294.3625 22.971874 295.9406 23.925Q297.53436 24.878124 298.3625 26.58125Q299.20624 28.26875 299.20624 30.409374Q299.20624 32.58125 298.33124 34.3Q297.45624 36.01875 295.83124 36.909374Q294.22186 37.8 292.3625 37.8Q290.34686 37.8 288.7531 36.83125Q287.15936 35.846874 286.33124 34.159374Q285.51874 32.45625 285.51874 30.58125ZM287.47186 30.6125Q287.47186 33.190624 288.8625 34.690624Q290.2531 36.175 292.34686 36.175Q294.4875 36.175 295.8625 34.675Q297.2531 33.159374 297.2531 30.39375Q297.2531 28.659374 296.65936 27.3625Q296.08124 26.05 294.9406 25.33125Q293.8 24.6125 292.3781 24.6125Q290.3781 24.6125 288.925 26.003124Q287.47186 27.378124 287.47186 30.6125ZM301.8625 41.51875L301.8625 27.175L303.47186 27.175L303.47186 28.51875Q304.03436 27.7375 304.7375 27.346874Q305.45624 26.940624 306.47186 26.940624Q307.8 26.940624 308.8156 27.628124Q309.83124 28.315624 310.34686 29.565624Q310.8781 30.8 310.8781 32.284374Q310.8781 33.878124 310.3 35.159374Q309.7375 36.425 308.64374 37.1125Q307.55 37.784374 306.34686 37.784374Q305.47186 37.784374 304.76874 37.409374Q304.08124 37.034374 303.6281 36.471874L303.6281 41.51875L301.8625 41.51875ZM303.45624 32.425Q303.45624 34.425 304.26874 35.378124Q305.08124 36.33125 306.2375 36.33125Q307.40936 36.33125 308.2375 35.346874Q309.08124 34.3625 309.08124 32.26875Q309.08124 30.3 308.2531 29.315624Q307.4406 28.315624 306.3156 28.315624Q305.1906 28.315624 304.3156 29.378124Q303.45624 30.425 303.45624 32.425ZM312.15936 34.45625L313.90936 34.175Q314.05 35.221874 314.72186 35.784374Q315.39374 36.33125 316.59686 36.33125Q317.8 36.33125 318.3781 35.846874Q318.97186 35.346874 318.97186 34.690624Q318.97186 34.096874 318.45624 33.753124Q318.09686 33.51875 316.65936 33.159374Q314.72186 32.659374 313.97186 32.315624Q313.2375 31.95625 312.84686 31.33125Q312.45624 30.690624 312.45624 29.925Q312.45624 29.2375 312.76874 28.64375Q313.09686 28.05 313.64374 27.659374Q314.05 27.3625 314.7531 27.159374Q315.47186 26.940624 316.28436 26.940624Q317.5031 26.940624 318.425 27.3Q319.34686 27.64375 319.78436 28.253124Q320.22186 28.846874 320.39374 29.846874L318.675 30.08125Q318.55 29.284374 317.9875 28.846874Q317.425 28.39375 316.40936 28.39375Q315.1906 28.39375 314.675 28.8Q314.15936 29.190624 314.15936 29.721874Q314.15936 30.065624 314.3781 30.346874Q314.58124 30.628124 315.05 30.815624Q315.3156 30.909374 316.59686 31.253124Q318.47186 31.753124 319.20624 32.08125Q319.9406 32.39375 320.3625 33.003124Q320.78436 33.596874 320.78436 34.503124Q320.78436 35.378124 320.26874 36.159374Q319.7531 36.940624 318.78436 37.3625Q317.8156 37.784374 316.59686 37.784374Q314.58124 37.784374 313.51874 36.940624Q312.45624 36.096874 312.15936 34.45625ZM332.22186 41.753124Q330.76874 39.925 329.76874 37.471874Q328.76874 35.003124 328.76874 32.3625Q328.76874 30.034374 329.51874 27.909374Q330.39374 25.440624 332.22186 22.9875L333.4875 22.9875Q332.3 25.01875 331.925 25.89375Q331.33124 27.2375 330.9875 28.70625Q330.5656 30.534374 330.5656 32.378124Q330.5656 37.065624 333.4875 41.753124L332.22186 41.753124ZM335.8781 25.253124L335.8781 23.2375L337.64374 23.2375L337.64374 25.253124L335.8781 25.253124ZM335.8781 37.55L335.8781 27.175L337.64374 27.175L337.64374 37.55L335.8781 37.55ZM339.5031 25.1125L339.5031 23.425L348.76874 23.425L348.76874 24.784374Q347.39374 26.2375 346.05 28.659374Q344.70624 31.065624 343.9875 33.6125Q343.45624 35.409374 343.3 37.55L341.5031 37.55Q341.53436 35.8625 342.15936 33.471874Q342.8 31.08125 343.9875 28.8625Q345.175 26.628124 346.5031 25.1125L339.5031 25.1125ZM350.1906 33.253124L350.1906 31.4875L355.58124 31.4875L355.58124 33.253124L350.1906 33.253124ZM364.0031 37.55L362.2375 37.55L362.2375 26.346874Q361.6125 26.95625 360.58124 27.565624Q359.55 28.159374 358.72186 28.471874L358.72186 26.76875Q360.20624 26.08125 361.3 25.096874Q362.40936 24.096874 362.8625 23.175L364.0031 23.175L364.0031 37.55ZM377.6125 35.8625L377.6125 37.55L368.15936 37.55Q368.14374 36.909374 368.3625 36.33125Q368.72186 35.3625 369.51874 34.425Q370.3156 33.4875 371.8156 32.253124Q374.15936 30.346874 374.97186 29.2375Q375.8 28.1125 375.8 27.1125Q375.8 26.065624 375.05 25.346874Q374.3 24.628124 373.09686 24.628124Q371.83124 24.628124 371.0656 25.39375Q370.3 26.159374 370.3 27.503124L368.4875 27.315624Q368.675 25.3 369.8781 24.2375Q371.09686 23.175 373.14374 23.175Q375.1906 23.175 376.39374 24.315624Q377.59686 25.45625 377.59686 27.14375Q377.59686 28.003124 377.2375 28.846874Q376.89374 29.675 376.08124 30.596874Q375.26874 31.503124 373.3781 33.1125Q371.78436 34.440624 371.33124 34.909374Q370.89374 35.378124 370.59686 35.8625L377.6125 35.8625ZM379.3781 33.8L381.22186 33.64375Q381.425 34.9875 382.175 35.675Q382.925 36.346874 383.9875 36.346874Q385.2531 36.346874 386.1281 35.39375Q387.0031 34.440624 387.0031 32.846874Q387.0031 31.346874 386.15936 30.4875Q385.3156 29.6125 383.95624 29.6125Q383.09686 29.6125 382.40936 30.003124Q381.7375 30.378124 381.34686 31.003124L379.6906 30.784374L381.08124 23.425L388.20624 23.425L388.20624 25.1125L382.4875 25.1125L381.72186 28.95625Q383.0031 28.05 384.425 28.05Q386.3 28.05 387.58124 29.3625Q388.8781 30.659374 388.8781 32.690624Q388.8781 34.64375 387.7375 36.05Q386.3625 37.8 383.9875 37.8Q382.03436 37.8 380.78436 36.70625Q379.55 35.6125 379.3781 33.8ZM390.3781 33.8L392.22186 33.64375Q392.425 34.9875 393.175 35.675Q393.925 36.346874 394.9875 36.346874Q396.2531 36.346874 397.1281 35.39375Q398.0031 34.440624 398.0031 32.846874Q398.0031 31.346874 397.15936 30.4875Q396.3156 29.6125 394.95624 29.6125Q394.09686 29.6125 393.40936 30.003124Q392.7375 30.378124 392.34686 31.003124L390.6906 30.784374L392.08124 23.425L399.20624 23.425L399.20624 25.1125L393.4875 25.1125L392.72186 28.95625Q394.0031 28.05 395.425 28.05Q397.3 28.05 398.58124 29.3625Q399.8781 30.659374 399.8781 32.690624Q399.8781 34.64375 398.7375 36.05Q397.3625 37.8 394.9875 37.8Q393.03436 37.8 391.78436 36.70625Q390.55 35.6125 390.3781 33.8ZM411.4875 23.2375L413.3781 23.2375L413.3781 31.503124Q413.3781 33.659374 412.89374 34.940624Q412.40936 36.20625 411.1281 37.003124Q409.8625 37.8 407.78436 37.8Q405.76874 37.8 404.4875 37.1125Q403.22186 36.409374 402.675 35.096874Q402.1281 33.784374 402.1281 31.503124L402.1281 23.2375L404.01874 23.2375L404.01874 31.4875Q404.01874 33.3625 404.3625 34.253124Q404.70624 35.128124 405.55 35.6125Q406.39374 36.08125 407.6281 36.08125Q409.70624 36.08125 410.59686 35.14375Q411.4875 34.190624 411.4875 31.4875L411.4875 23.2375ZM416.01874 41.753124L414.76874 41.753124Q417.675 37.065624 417.675 32.378124Q417.675 30.534374 417.26874 28.7375Q416.925 27.26875 416.33124 25.925Q415.95624 25.034374 414.76874 22.9875L416.01874 22.9875Q417.8625 25.440624 418.7375 27.909374Q419.4875 30.034374 419.4875 32.3625Q419.4875 35.003124 418.47186 37.471874Q417.47186 39.925 416.01874 41.753124Z" fill-rule="nonzero"/></svg>